<?xml version="1.0" encoding="utf-8"?>
<!-- Generator: Adobe Illustrator 21.0.0, SVG Export Plug-In . SVG Version: 6.00 Build 0)  -->
<svg version="1.1" xmlns="http://www.w3.org/2000/svg" xmlns:xlink="http://www.w3.org/1999/xlink" x="0px" y="0px"
	 viewBox="0 0 23 23" style="enable-background:new 0 0 23 23;" xml:space="preserve">
<style type="text/css">
	.st0{fill:#7F7C7C;}
</style>
<g id="Layer_1">
</g>
<g id="Layer_2">
	<path class="st0" d="M21.6,11.4c-0.6-0.6-1.6-0.6-2.2,0L13,17.8V1.5C13,0.7,12.3,0,11.5,0C10.7,0,10,0.7,10,1.5v16.3l-6.4-6.4
		c-0.6-0.6-1.6-0.6-2.2,0c-0.6,0.6-0.6,1.6,0,2.2l9,9c0,0,0,0,0,0.1c0.3,0.3,0.7,0.4,1.1,0.4c0.4,0,0.8-0.1,1.1-0.4c0,0,0,0,0-0.1
		l9-9C22.2,13,22.2,12,21.6,11.4z"/>
</g>
</svg>
